<svg xmlns="http://www.w3.org/2000/svg" viewBox="0 0 6000 4000"><defs><style>.cls-1{fill:#ebe9da;}.cls-2{fill:#fff;}.cls-3{fill:#692f0a;}.cls-4{fill:#6799fc;}.cls-5{fill:#b2b0a1;}.Graphic-Style-35{fill:#cae2f5;}.Graphic-Style-4{fill:#381746;}.cls-6{fill:#93907d;}.Graphic-Style-6{fill:#fecd3b;}.Graphic-Style-41{fill:#050505;}.DA-2{fill:#ffa99c;}.cls-7{fill:#ccc8b2;}.cls-8{fill:#3a78dd;}.cls-9{fill:#2c5aa6;}.Graphic-Style-9{fill:#ff2d60;}.DA-DAM{fill:#f47d65;}.cls-10{fill:#0c0a0a;}.cls-11{fill:#9cc2ff;}.cls-12{fill:#ffb701;}.cls-13{fill:#060606;}</style></defs><g id="Vectors"><rect class="cls-1" x="1605.37" y="972.36" width="393.07" height="649.76" rx="65.51"/><rect class="cls-2" x="1527.02" y="1150.71" width="549.76" height="293.07" rx="15.51" transform="translate(3099.15 -504.66) rotate(90)"/><path class="cls-3" d="M1932.93,1574.63h-262a18,18,0,0,1-18-18V1037.87a18,18,0,0,1,18-18h262a18,18,0,0,1,18,18v518.74A18,18,0,0,1,1932.93,1574.63Zm-262-549.77a13,13,0,0,0-13,13v518.74a13,13,0,0,0,13,13h262a13,13,0,0,0,13-13V1037.87a13,13,0,0,0-13-13Z"/><path class="cls-2" d="M1680.14,1153.27a107.61,107.61,0,0,0-74.43,29.31,107.64,107.64,0,0,0-74.18-29.95c-59.65-.25-107.13,47.91-108.47,107.55-2.13,95,181.33,230.61,181.33,230.61s184.62-134,183.3-229.06C1786.86,1202.09,1739.79,1153.52,1680.14,1153.27Z"/><path class="cls-3" d="M1604.39,1493.29a2.46,2.46,0,0,1-1.48-.49,915.72,915.72,0,0,1-91.75-79.91c-61-61.25-91.5-112.65-90.59-152.77a113.12,113.12,0,0,1,33.09-77.94,108.8,108.8,0,0,1,77.4-32h.48a110,110,0,0,1,74.19,29,110,110,0,0,1,74-28.4h.48a108.8,108.8,0,0,1,77.6,32.71,113.1,113.1,0,0,1,32.43,78.22c.56,40.13-30.36,91.26-91.9,152a913.13,913.13,0,0,1-92.43,79.12A2.48,2.48,0,0,1,1604.39,1493.29Zm-73.34-338.16c-57.87,0-104.16,46.08-105.49,105.1-.85,38.15,30,89.71,89.1,149.08a916.21,916.21,0,0,0,89.75,78.36,914.89,914.89,0,0,0,90.41-77.59c59.65-58.87,90.9-110.15,90.37-148.31-.82-59.19-47-105.75-105.06-106a105,105,0,0,0-72.71,28.63,2.51,2.51,0,0,1-3.44,0,105.07,105.07,0,0,0-72.46-29.26Z"/><path class="cls-4" d="M1604.55,1456.71a888.53,888.53,0,0,1-72.94-65.09c-53.28-53.59-82.24-100-81.55-130.84,1-45.5,36.6-81.15,81-81.15h.36a80.69,80.69,0,0,1,55.63,22.46l18.5,17.7,18.66-17.54a80.64,80.64,0,0,1,55.46-22h.36a79.49,79.49,0,0,1,56.7,23.9,83.71,83.71,0,0,1,24,57.94c.43,30.89-29.09,77.26-83.12,130.58A888.64,888.64,0,0,1,1604.55,1456.71Z"/><rect class="cls-1" x="1752.01" y="1449.81" width="152.55" height="21.39" rx="10.69"/><rect class="cls-1" x="1812.01" y="1395.28" width="92.55" height="21.39" rx="10.69"/><rect class="cls-1" x="1714.22" y="1504.34" width="190.34" height="21.39" rx="10.69"/><path class="cls-1" d="M3744.68,3008.68c-184.2,0-336,103.42-356.84,236.68h713.69C4080.71,3112.1,3928.89,3008.68,3744.68,3008.68Z"/><path class="cls-1" d="M3700.57,3246H1517.42c-31.17-183.22-10.71-481.55,450.91-487,135-452.63,587.62-420.88,738.5-8,166.76-270,635.28-87.35,587.62,262.06C3550.21,2961.34,3694.11,3105.41,3700.57,3246Z"/><rect class="cls-2" x="2609.09" y="3077.61" width="214.89" height="170.59"/><path class="cls-3" d="M2824,3250.7H2609.09a2.5,2.5,0,0,1-2.5-2.5V3077.61a2.5,2.5,0,0,1,2.5-2.5H2824a2.5,2.5,0,0,1,2.5,2.5V3248.2A2.5,2.5,0,0,1,2824,3250.7Zm-212.38-5h209.88V3080.11H2611.59Z"/><rect class="cls-2" x="2906.62" y="2970.57" width="214.89" height="277.63"/><path class="cls-3" d="M3121.51,3250.7H2906.62a2.5,2.5,0,0,1-2.5-2.5V2970.57a2.5,2.5,0,0,1,2.5-2.5h214.89a2.5,2.5,0,0,1,2.5,2.5V3248.2A2.5,2.5,0,0,1,3121.51,3250.7Zm-212.39-5H3119V2973.07H2909.12Z"/><rect class="cls-2" x="3204.15" y="2823.39" width="214.89" height="424.81"/><path class="cls-3" d="M3419,3250.7H3204.15a2.5,2.5,0,0,1-2.5-2.5V2823.39a2.5,2.5,0,0,1,2.5-2.5H3419a2.5,2.5,0,0,1,2.5,2.5V3248.2A2.5,2.5,0,0,1,3419,3250.7Zm-212.39-5h209.89V2825.89H3206.65Z"/><path class="cls-5" d="M4369.5,1914.86H3082.06a66.1,66.1,0,0,1-66-66v-1281a66.1,66.1,0,0,1,66-66H4369.5a66.1,66.1,0,0,1,66,66v1281A66.09,66.09,0,0,1,4369.5,1914.86ZM3082.06,509.79a58.09,58.09,0,0,0-58,58v1281a58.08,58.08,0,0,0,58,58H4369.5a58.08,58.08,0,0,0,58-58v-1281a58.09,58.09,0,0,0-58-58Z"/><path class="Graphic-Style-35" d="M4226.21,1826V1461.75h19.25v44.92s43.49-10,62.5-17.59c20.31-8.13,47.46-37.13,73.18-11.41,19,19-45.86,13.55-60.11,18.3s-74.86,23.29-74.86,23.29v276.59Z"/><path class="Graphic-Style-35" d="M3330.85,850.83V779.54H3289.5V899.3h-94.1v320.79l221-52.75V905Zm-32.79,257.34a15,15,0,0,1-15,15h-45.63a15,15,0,0,1-15-15v-2.85a15,15,0,0,1,15-15h45.63a15,15,0,0,1,15,15Zm0-69.14a15,15,0,0,1-15,15h-45.63a15,15,0,0,1-15-15v-2.86a15,15,0,0,1,15-15h45.63a15,15,0,0,1,15,15Zm0-69.15a15,15,0,0,1-15,15h-45.63a15,15,0,0,1-15-15V967a15,15,0,0,1,15-15h45.63a15,15,0,0,1,15,15Z"/><path class="Graphic-Style-35" d="M4062.25,1312.77V1108.89L3961,1007.66V926.39H3839.84l-22.1-30.29V707.9L3738.61,637l-71.29,68.43V810.91h-62.73l-71.29,39.92v308l173.94,424.87,433.43,265.19V1312.77ZM3657.34,1065.4a10,10,0,0,1-10,10h-33.5a10,10,0,0,1-10-10v-2.85a10,10,0,0,1,10-10h33.5a10,10,0,0,1,10,10Zm0-57.5a10,10,0,0,1-10,10h-33.5a10,10,0,0,1-10-10v-2.85a10,10,0,0,1,10-10h33.5a10,10,0,0,1,10,10Zm0-57.51a10,10,0,0,1-10,10h-33.5a10,10,0,0,1-10-10v-2.85a10,10,0,0,1,10-10h33.5a10,10,0,0,1,10,10Zm0-57.5a10,10,0,0,1-10,10h-33.5a10,10,0,0,1-10-10V890a10,10,0,0,1,10-10h33.5a10,10,0,0,1,10,10Zm57.75,185a9.63,9.63,0,0,1-19.25,0V745.32a9.63,9.63,0,0,1,19.25,0Zm36.71-12.12a9.63,9.63,0,0,1-19.25,0V733.2a9.63,9.63,0,0,1,19.25,0Zm34.93-11.41a9.63,9.63,0,1,1-19.25,0V808.59a9.63,9.63,0,1,1,19.25,0Zm122.26-42a8.42,8.42,0,0,1-8.42,8.42h-48a8.41,8.41,0,0,1-8.41-8.42v-1.94a8.4,8.4,0,0,1,8.41-8.41h48a8.41,8.41,0,0,1,8.42,8.41Zm0-43.72a8.42,8.42,0,0,1-8.42,8.42h-48a8.41,8.41,0,0,1-8.41-8.42v-1.94a8.41,8.41,0,0,1,8.41-8.42h48a8.42,8.42,0,0,1,8.42,8.42ZM4093.62,1558a16,16,0,0,1-16,16h-43.84a16,16,0,0,1-16-16v-6.42a16,16,0,0,1,16-16h43.84a16,16,0,0,1,16,16Zm0-86.62a16,16,0,0,1-16,16h-43.84a16,16,0,0,1-16-16V1465a16,16,0,0,1,16-16h43.84a16,16,0,0,1,16,16Zm0-86.61a16,16,0,0,1-16,16h-43.84a16,16,0,0,1-16-16v-6.42a16,16,0,0,1,16-16h43.84a16,16,0,0,1,16,16Z"/><path class="Graphic-Style-4" d="M2552.29,454.15a65.51,65.51,0,0,0-65.51-65.51h-496a65.51,65.51,0,0,0-65.51,65.51v64.48h627Z"/><path class="cls-1" d="M1925.26,518.63V972.89a65.51,65.51,0,0,0,65.51,65.51h496a65.51,65.51,0,0,0,65.51-65.51V518.63Z"/><circle class="cls-6" cx="2215.11" cy="939.32" r="284.31"/><circle class="cls-2" cx="2185.17" cy="924.35" r="284.31"/><path class="cls-3" d="M2185.17,1211.16a286.83,286.83,0,1,1,202.8-84A284.93,284.93,0,0,1,2185.17,1211.16Zm0-568.62c-155.39,0-281.81,126.42-281.81,281.81s126.42,281.81,281.81,281.81S2467,1079.74,2467,924.35,2340.56,642.54,2185.17,642.54Z"/><path class="Graphic-Style-6" d="M2185.17,1178.66A254.32,254.32,0,1,1,2365,1104.17,252.64,252.64,0,0,1,2185.17,1178.66Z"/><polygon class="cls-2" points="2153.61 1122.87 2116.19 1083.87 2008.37 971.52 2080.53 902.28 2150.92 975.63 2330.66 774.07 2405.3 840.62 2189.58 1082.53 2153.61 1122.87"/><path class="Graphic-Style-4" d="M4296.4,2059.43l-49-22.64-33.8,6.83-36.4,39.9-50.63-17-4.92-53.78-22.81-25.86L4046,1975.29l-10.58-52.36,44.13-31.15,11-32.68-16.36-51.48,40.06-35.34,49,22.64,33.8-6.83,36.4-39.9,50.63,17,4.91,53.79,22.82,25.86,52.75,11.57,10.58,52.36-44.12,31.14-11,32.69,16.36,51.48Z"/><circle class="Graphic-Style-35" cx="4205.33" cy="1915.85" r="69.44"/><path class="Graphic-Style-41" d="M2350,3104.5l-49-22.64-33.8,6.83-36.4,39.9-50.63-17-4.92-53.78-22.81-25.86-52.76-11.57L2089,2968l44.13-31.15,11-32.69-16.36-51.47,40.06-35.34,49,22.64,33.8-6.83,36.4-39.91,50.63,17,4.91,53.79,22.82,25.86,52.75,11.57,10.58,52.36L2384.65,2985l-11,32.69,16.36,51.48Z"/><circle class="cls-2" cx="2258.9" cy="2960.92" r="69.44"/><polygon class="Graphic-Style-41" points="4039.08 2804.09 3662.33 2902.7 3646.29 2923.85 3723.99 3176.21 4123.2 3035.06 4139.24 3013.68 4039.08 2804.09"/><rect class="cls-2" x="1981.69" y="434.84" width="34.99" height="37.59" rx="12.74"/><rect class="cls-2" x="2065.93" y="434.84" width="34.99" height="37.59" rx="12.74"/><rect class="cls-2" x="2150.18" y="434.84" width="34.99" height="37.59" rx="12.74"/><rect class="cls-5" x="2434.86" y="1190.75" width="1686.62" height="1403.21" rx="120.97" transform="translate(-300.03 657.9) rotate(-10.96)"/><rect class="cls-2" x="2408.13" y="1161.88" width="1686.62" height="1403.21" rx="120.97" transform="translate(-295.03 652.29) rotate(-10.96)"/><path class="cls-3" d="M2652.64,2694.36a123.67,123.67,0,0,1-121.17-100L2310.65,1454.28a123.61,123.61,0,0,1,97.73-144.7l1418.33-274.71a123.6,123.6,0,0,1,144.69,97.73l220.82,1140.09a123.46,123.46,0,0,1-97.73,144.69L2676.17,2692.1A123.65,123.65,0,0,1,2652.64,2694.36ZM3850.43,1037.58a119.72,119.72,0,0,0-22.77,2.2L2409.34,1314.49a118.46,118.46,0,0,0-93.78,138.84l220.82,1140.08a118.48,118.48,0,0,0,138.84,93.78l1418.32-274.72.47,2.46-.47-2.46a118.47,118.47,0,0,0,93.78-138.83L3966.49,1133.55a118.54,118.54,0,0,0-116.06-96Z"/><path class="cls-1" d="M4142.17,2282.39,4009.06,1595.2l-69.47-358.69L2377.84,1533.09,2569,2520l12.52,64.66a72.27,72.27,0,0,0,84.94,57.36L2829,2610.57l151.28-29.3,636.07-123.21,468.46-90.73a72.46,72.46,0,0,0,57.38-84.94Z"/><path class="DA-2" d="M3921.34,1142.3a72.53,72.53,0,0,0-71-58.73,73.68,73.68,0,0,0-13.92,1.35L2418.08,1359.64a72.58,72.58,0,0,0-57.38,84.95l17.14,88.5,1561.75-296.58Z"/><path class="cls-7" d="M4142.17,2282.39,4009.06,1595.2c-71,33-191.22,100.72-236.23,196.62-65.59,139.72-122.62,359.28-213.86,447.68s-202.46-134-371.47,1.58-372.77,132.44-541,220.84c-33.72,17.72-58.85,37.62-77.48,58.1l12.52,64.66a72.27,72.27,0,0,0,17.18,34.55l1543.21-307.92A72.35,72.35,0,0,0,4142.17,2282.39Z"/><path class="cls-6" d="M2598.71,2619.23a72,72,0,0,0,67.76,22.81L2829,2610.57l151.28-29.3,636.07-123.21,468.46-90.73a72.54,72.54,0,0,0,57.13-56Z"/><path class="Graphic-Style-41" d="M3126.58,1576.19s-66.1,38.88-53.14,103.68c-40.17,37.59-40.17,45.37-23.33,71.29-90.72,11.66-101.09,112.76-95.9,114s146.45,36.29,146.45,36.29S3225.08,1838,3238,1817.26s2.6-101.1,2.6-101.1Z"/><path class="Graphic-Style-41" d="M3429.86,1560.64s-77.76,51.84-9.07,102.38,18.14,102.39,20.74,123.13c111.46,58.32,111.46,115.35,45.36,117.94S3369,1895,3334,1875.58s-63.5-32.4-62.21-45.36,22-124.42,24.63-163.31,14.25-83,14.25-83Z"/><path class="DA-2" d="M2214.58,1504s-17.28-100.23-17.28-163.3c0-44.37-9.5-232.43-9.5-232.43s-3.1-25.54-14.69-31.11c-13.32-6.4-35.2,8.79-32,39.75,6.05,57.89-4.32,98.5-4.32,98.5s-114.05-5.18-114.05,93.32c0,47.3,33.7,80.16,54,119.67,22,42.75,30.67,90.29,30.67,90.29Z"/><path class="cls-8" d="M3014.06,2045.86c-28.07,50.9-52.32,90.41-52.32,90.41s-137,41.49-486.22-53.32c-250.3-68-340-303.12-372.05-457.13-16.88-81-18.49-109.68-18.49-109.68-13.08-93.43,135.79-70.21,135.79-70.21S2267,1712.44,2484,1807.51s517.76,24.87,596.07,16.69C3130.83,1818.89,3065.93,1951.82,3014.06,2045.86Z"/><path class="cls-9" d="M3014.06,2045.86c-28.07,50.9-52.32,90.41-52.32,90.41s-137,41.49-486.22-53.32c-250.3-68-340-303.12-372.05-457.13,44.83,131.14,136.24,323,298.61,379.37,254,88.12,391.41,95.91,443.25,67.39,51.84-54.44,88.14-72.58,88.14-72.58l80.35,44.07S3013.91,2044.69,3014.06,2045.86Z"/><path class="cls-8" d="M3616.33,2458.06l-70,13.56-566,109.65c14-79.59,15.1-163.95-8.78-216.64-100.22-221.2-62.2-369.81-62.2-369.81,62.2-176.27,245.38-224.65,466.58-186.63,84,14.42,141.54,143.89,180.65,299C3585.52,2222.21,3604.38,2351.33,3616.33,2458.06Z"/><path class="cls-9" d="M3546.94,2458c3.46-44.93-3.46-122.7-60.49-205.65s-72.57-155.52-72.57-155.52l142.63,10.4c29,115,47.87,244.15,59.82,350.88l-70,13.56C3546.37,2467.2,3546.57,2462.63,3546.94,2458Z"/><path class="DA-2" d="M3965.79,2790.46l-136,61.48c-17.13,7.28-45.35,24.78-63.94,28.23-22.67,4.23-31.78-9.16,1.16-46.37,33.64-37.11,42.62-89,42.62-89l140-20.74S3959.1,2748.23,3965.79,2790.46Z"/><path class="cls-5" d="M4455.39,2783.75c-117.26,0-212.66-95.39-212.66-212.65s95.4-212.66,212.66-212.66S4668,2453.84,4668,2571.1,4572.64,2783.75,4455.39,2783.75Zm0-417.31c-112.85,0-204.66,91.81-204.66,204.66s91.81,204.65,204.66,204.65S4660,2683.94,4660,2571.1,4568.23,2366.44,4455.39,2366.44Z"/><path class="cls-8" d="M3396.16,2108.87S3538.3,2178,3642,2375c59.36,112.79,127.87,390.55,159,390.55s159,0,159-48.39-89.86-788-559.9-902.06Z"/><path class="Graphic-Style-41" d="M3177.13,1392.58c-.86,2.59-111.46-22.47-82.09,94.18s77.77,52.71,77.77,52.71Z"/><path class="DA-2" d="M3346.91,1663c-6.47,66.11-19.44,160.72-19.44,160.72s-27.21,119.23-105,102.38-58.32-99.79-58.32-99.79l6.32-57.42,4.91-44.54s-57-8.12-78.5-101.92c-13.78-60.08,41.35-283.44,207.25-242S3353.39,1596.93,3346.91,1663Z"/><path class="Graphic-Style-41" d="M3474.36,1330.37a70,70,0,1,1-140,0c0-38.66,27-44.5,65.66-44.5S3474.36,1291.71,3474.36,1330.37Z"/><path class="Graphic-Style-41" d="M3145.16,1423.68s-22.47,76,87.27,94.19c62.21,26.78,53.57,30.24,50.11,58.75s12,44.77,25.92,32c45.65-54.3,42.19-23.67,33.38,42-.86,6.43-.54,25.3,12.77,20.55,24.33-8.69,56.08-28.73,79.14-110.46,13.32-47.2-3.76-110.82-29.38-155.1C3334.39,1284.57,3146.89,1329.5,3145.16,1423.68Z"/><circle class="Graphic-Style-6" cx="3598.48" cy="1218.69" r="27.65"/><circle class="Graphic-Style-9" cx="3717.03" cy="1195.92" r="27.65"/><circle class="cls-8" cx="3823.2" cy="1176.11" r="27.65"/><path class="DA-DAM" d="M3262.38,1711.41c-14.25,41.91-62,55.16-91.89,57.5l4.91-44.54S3229.54,1734.45,3262.38,1711.41Z"/><path class="DA-DAM" d="M3164.17,1800.41s-13,79.06,47.95,97.2,116.65-95.91,116.65-95.91,25.92,0,28.51,9.08-25.92,127-121.83,125.72-107.57-99.8-101.09-125.72C3143.43,1795.22,3164.17,1800.41,3164.17,1800.41Z"/><path class="cls-2" d="M3927.87,2717.52a4,4,0,0,1-3.88-3c-30.7-124.29-113.06-431.39-214.57-598.35-67.42-110.89-156.06-179.23-218.55-217-67.66-40.93-119.89-55.8-120.41-55.95a4,4,0,1,1,2.16-7.7c.53.15,53.81,15.31,122.39,56.81a668.68,668.68,0,0,1,111.83,84.83A646,646,0,0,1,3716.26,2112c102.08,167.9,184.71,475.93,215.5,600.58a4,4,0,0,1-2.93,4.84A4,4,0,0,1,3927.87,2717.52Z"/><path class="cls-2" d="M2796.47,1887.68c-89.48,0-167.43-17.66-220.07-33.84-66.76-20.53-108.44-43.22-108.85-43.45a4,4,0,0,1,3.85-7c.41.23,41.53,22.6,107.57,42.88,60.88,18.69,156,39.39,263.49,31.81,197.93-14,251.51-49.48,252-49.84a4,4,0,0,1,4.58,6.56c-2.16,1.51-55.06,37.09-256,51.26C2827.22,1887.16,2811.67,1887.68,2796.47,1887.68Z"/><path class="cls-10" d="M3210.82,2434.3a4,4,0,0,1-4-3.51l-23.33-189.23c-12.12-98.28-4.37-170.35,4.26-213.5,9.4-47,21.58-70.43,22.09-71.4a4,4,0,1,1,7.08,3.74c-.2.38-12.29,23.8-21.42,69.68-8.46,42.51-16,113.54-4.07,210.5l23.33,189.23a4,4,0,0,1-3.48,4.46Z"/><path class="cls-10" d="M3488.18,2177.68a4,4,0,0,1-2.25-.7l-57-38.88a4,4,0,1,1,4.5-6.61l57,38.88a4,4,0,0,1-2.26,7.31Z"/><path class="cls-10" d="M2902.36,2149.16a4,4,0,0,1-4-4v-36.29a4,4,0,0,1,8,0v36.29A4,4,0,0,1,2902.36,2149.16Z"/><circle class="cls-1" cx="1343.63" cy="2959.09" r="145.16"/><path class="cls-5" d="M1737,2400.83H1359.83a57.85,57.85,0,0,1-57.78-57.79V2043.65a57.85,57.85,0,0,1,57.78-57.79H1737a57.86,57.86,0,0,1,57.79,57.79V2343A57.86,57.86,0,0,1,1737,2400.83Zm-377.16-407a49.84,49.84,0,0,0-49.78,49.79V2343a49.84,49.84,0,0,0,49.78,49.79H1737a49.85,49.85,0,0,0,49.79-49.79V2043.65a49.85,49.85,0,0,0-49.79-49.79Z"/><path class="cls-1" d="M1730.17,2081.67V2305a31.2,31.2,0,0,1-31.2,31.2H1397.85a31.21,31.21,0,0,1-31.2-31.2V2081.67a31.2,31.2,0,0,1,31.2-31.2H1699A31.19,31.19,0,0,1,1730.17,2081.67Z"/><path class="cls-4" d="M1730.17,2106.48V2305a31.2,31.2,0,0,1-31.2,31.2H1397.85a31.21,31.21,0,0,1-31.2-31.2v-17c27.48-27.55,103.71-100.78,132.52-95.16,35.41,6.91,63.93,52.71,76,51.84s57-81.22,81.22-105.41C1675.9,2119.86,1707.69,2100.94,1730.17,2106.48Z"/><circle class="Graphic-Style-9" cx="1485.77" cy="2109.53" r="31.54"/><polygon class="Graphic-Style-41" points="2134.32 2834.26 2200.11 2571.1 1928.18 2571.1 2134.32 2834.26"/><polygon class="Graphic-Style-6" points="1913.92 2534.91 1871.16 2478.99 1739.58 2478.99 1739.58 2534.91 1739.58 2655.53 1739.58 2834.26 2134.32 2834.26 2134.32 2534.91 1913.92 2534.91"/><rect class="cls-2" x="1773.98" y="2649.63" width="86.62" height="27.35" rx="12.76"/><rect class="cls-2" x="1773.98" y="2701.42" width="86.62" height="92.27" rx="10.04"/><path class="cls-2" d="M1784.4,2510.79H1867a9,9,0,0,1,9,9v2.74a9,9,0,0,1-9,9H1784.4a10.42,10.42,0,0,1-10.42-10.42v0a10.42,10.42,0,0,1,10.42-10.42Z"/><g id="Artwork_8" data-name="Artwork 8"><circle class="Graphic-Style-6" cx="4455.39" cy="2571.1" r="173.34"/><path class="cls-2" d="M4455.39,2560.88a37.38,37.38,0,1,1,36.83-43.83,7.7,7.7,0,0,0,7.57,6.44h0a7.69,7.69,0,0,0,7.57-9,52.75,52.75,0,1,0-52,61.77h0a37.38,37.38,0,1,1-36.84,43.83,7.7,7.7,0,0,0-7.57-6.44h0a7.69,7.69,0,0,0-7.57,9,52.75,52.75,0,1,0,52-61.76Z"/><path class="cls-2" d="M4455.39,2447.3c-4.18,0-7.57,3-7.57,6.82v234c0,3.77,3.39,6.82,7.57,6.82s7.56-3,7.56-6.82v-234C4463,2450.35,4459.56,2447.3,4455.39,2447.3Z"/></g><path class="cls-5" d="M4680.62,2358.7A126.72,126.72,0,1,1,4807.35,2232,126.86,126.86,0,0,1,4680.62,2358.7Zm0-245.44A118.72,118.72,0,1,0,4799.35,2232,118.86,118.86,0,0,0,4680.62,2113.26Z"/><g id="Artwork_8-2" data-name="Artwork 8"><circle class="Graphic-Style-6" cx="4680.62" cy="2231.98" r="101.95"/><path class="cls-2" d="M4680.62,2226a22,22,0,1,1,21.67-25.78,4.54,4.54,0,0,0,4.45,3.79h0a4.52,4.52,0,0,0,4.45-5.3,31,31,0,1,0-30.57,36.33h0a22,22,0,1,1-21.66,25.78,4.54,4.54,0,0,0-4.45-3.79h0a4.53,4.53,0,0,0-4.45,5.31,31,31,0,1,0,30.56-36.33Z"/><path class="cls-2" d="M4680.62,2159.17a4.26,4.26,0,0,0-4.45,4v137.6a4.47,4.47,0,0,0,8.9,0v-137.6A4.25,4.25,0,0,0,4680.62,2159.17Z"/></g><path class="cls-8" d="M1152.49,2693.9C1079,2829,1222.58,2964,1222.58,2964l106,49.58,42.74-63.25S1256.77,2692.19,1152.49,2693.9Z"/><path class="cls-2" d="M1302.93,2990.24a4,4,0,0,1-4-4.6c2.71-18.06-2.09-24.83-11.66-38.32a233.73,233.73,0,0,1-27.38-48.42c-23.53-55.44-86.23-152.28-86.87-153.25a4,4,0,0,1,6.71-4.35c.64,1,63.73,98.39,87.52,154.48a224.18,224.18,0,0,0,26.55,46.91c9.77,13.79,16.23,22.89,13.05,44.14A4,4,0,0,1,1302.93,2990.24Z"/><path class="cls-8" d="M1523.47,3088.81s-14.77-65,80.8-143c0-116.21,81.69-150.9,135.46-117.94,55.5-62.44,145.69,26,114.47,104.06,34.69,102.33-88.45,100.6-95.39,97.13C1741.47,3095,1523.47,3088.81,1523.47,3088.81Z"/><path class="cls-2" d="M1602.11,3094.52a3.92,3.92,0,0,1-1.6-.33,4,4,0,0,1-2.07-5.27c27.63-63.28,75.33-118,110.48-152.75,38-37.62,70-60.66,70.37-60.89a4,4,0,0,1,4.66,6.5c-.32.23-31.9,23-69.51,60.18-34.61,34.24-81.56,88.09-108.67,150.16A4,4,0,0,1,1602.11,3094.52Z"/><path class="cls-4" d="M1431.15,3114.46s-110.27-64.11-30.77-210.28c-97.45-182.07-100-464.16,53.85-492.37s200,228.24,146.17,333.38c76.93,153.86-72.66,344.48-72.66,344.48Z"/><path class="cls-2" d="M1509.79,3120.17a4,4,0,0,1-4-3.9c0-2-5.53-201.41-40.93-354.8-18.68-81-15.34-146.49-9.24-187.2,6.63-44.26,17.58-69,18-70.06a4,4,0,1,1,7.3,3.27c-.16.36-11.06,25.15-17.49,68.34-5.94,39.95-9.18,104.27,9.19,183.85,35.58,154.18,41.08,354.39,41.13,356.39a4,4,0,0,1-3.9,4.11Z"/><path class="cls-11" d="M1345.24,3079.84c-1.28-5.13-50-20.52-37.18-132.07-57.7-71.8-57.7-271.82-6.41-318S1427.3,2741.34,1435,2858c32,24.36,39.74,112.83,9,135.91,24.36,53.85-33.34,79.5-34.62,85.91S1345.24,3079.84,1345.24,3079.84Z"/><path class="cls-2" d="M1357.64,3149.23a3.81,3.81,0,0,1-1-.13,4,4,0,0,1-2.88-4.87l15.39-59.83c15.3-59.51-22.69-190.12-47.84-276.55-27.61-94.92,4.46-136.92,5.84-138.66a4,4,0,0,1,6.28,4.95c-.11.15-7.81,10.23-12.19,31.27-4.07,19.55-6,52.81,7.76,100.2,26.9,92.49,63.75,219.15,47.9,280.78l-15.39,59.84A4,4,0,0,1,1357.64,3149.23Z"/><path class="cls-4" d="M1217.45,3092.23s-70.09,13.68-97.45-76.93c-111.12-12-109.41-88.9-114.54-193.18,124.8-6.84,186.35,66.67,210.28,106,88.9,17.1,153.86,109.42,138.48,164.12S1217.45,3092.23,1217.45,3092.23Z"/><path class="cls-2" d="M1302.07,3130.43a4,4,0,0,1-3.8-2.78c-3.71-11.53-26.61-44.22-57.14-76.92-21.85-23.41-65.17-65.43-109.83-83.87-41.68-17.22-64.51-45.66-76.32-66.48-12.83-22.6-15.74-41-15.86-41.76a4,4,0,1,1,7.9-1.21h0c0,.18,2.89,18,15.08,39.32,11.2,19.63,32.82,46.45,72.25,62.73,46.06,19,90.34,61.93,112.63,85.81,31.7,34,54.85,67.31,58.9,79.93a4,4,0,0,1-2.58,5A4.06,4.06,0,0,1,1302.07,3130.43Z"/><rect class="Graphic-Style-41" x="1187.28" y="3076.7" width="496.66" height="40.32"/><path class="cls-5" d="M1684,3117v62.68a66.26,66.26,0,0,1-66.26,66.25H1253.54a66.26,66.26,0,0,1-66.25-66.25V3117Z"/><path class="cls-6" d="M1684,3117v62.68a66.26,66.26,0,0,1-66.26,66.25H1473.27c32.74-14.53,97.12-44.5,106.61-59.69,9.14-14.61,11.77-50.07,12.51-69.24Z"/><polygon class="Graphic-Style-4" points="4055.12 2782.7 3662.33 2902.47 3740.03 3154.82 4139.24 3013.68 4055.12 2782.7"/><rect class="cls-2" x="3910.23" y="2894.43" width="35.29" height="120.63" rx="17.64" transform="translate(-697.13 1291) rotate(-17.17)"/><path class="cls-12" d="M3788,3085.07h0a17.64,17.64,0,0,1-22.06-11.65l-40.12-124.93a17.63,17.63,0,0,1,11.65-22.06h0a17.65,17.65,0,0,1,22.07,11.65L3799.68,3063A17.65,17.65,0,0,1,3788,3085.07Z"/><path class="DA-2" d="M3945.34,2938.11c-25.81,35.83-37.3,61.65-55.56,70.62-21.73,10.68-48.67.05-59.86-10.76-20.6-19.87-13.11-89.86-.15-146l136-61.48C3970.44,2819.68,3971.4,2902,3945.34,2938.11Z"/><path class="cls-10" d="M4192,3250H1131.64a4,4,0,0,1,0-8H4192a4,4,0,0,1,0,8Z"/><path class="cls-13" d="M3242,1577.48c-1.91,1.59-10.43-6.64-23.36-12.06-3.18-1.47-6.35-2.54-9.24-3.57s-5.58-1.77-7.86-2.41c-4.56-1.35-7.49-2.2-7.54-3.35s3.1-2.33,8.27-2.4a44.57,44.57,0,0,1,9,.85,50.58,50.58,0,0,1,10.63,3.37,49.07,49.07,0,0,1,9.69,5.59,39.93,39.93,0,0,1,6.66,6.23,20.5,20.5,0,0,1,3.41,5.12C3242.28,1576.2,3242.4,1577.1,3242,1577.48Z"/><path class="cls-13" d="M3166.41,1549.44c-2.08,1.37-9.64-8.28-20.86-17-.67-.58-1.41-1.06-2.1-1.57s-1.38-1-2.06-1.5c-1.42-.87-2.71-1.86-4-2.59-2.59-1.65-5.06-2.85-7.15-3.94s-3.87-1.81-5.1-2.5-1.92-1.21-1.93-1.77c0-1.14,3.43-2.13,8.74-1.27a42.83,42.83,0,0,1,18.67,8.65,52.5,52.5,0,0,1,4.42,3.84,45.06,45.06,0,0,1,3.71,4c1.08,1.34,2.15,2.58,3,3.84s1.61,2.47,2.27,3.58a21.83,21.83,0,0,1,1.58,3.12,22.07,22.07,0,0,1,.93,2.51C3166.89,1548.2,3166.88,1549.13,3166.41,1549.44Z"/><ellipse class="Graphic-Style-41" cx="3202.86" cy="1588.69" rx="13.68" ry="11.23" transform="translate(1017.8 4418.49) rotate(-78.71)"/><ellipse class="Graphic-Style-41" cx="3137.75" cy="1560.65" rx="13.68" ry="11.23" transform="translate(992.93 4332.09) rotate(-78.71)"/><path class="Graphic-Style-41" d="M3156.19,1634.49a2,2,0,0,1-1.93-1.48c-.48-1.76-2.38-6.63-5.34-8a4.45,4.45,0,0,0-4,.3c-6.15,3.08-13.95.87-18.13-5.13-3.29-4.72-4.23-12.2,3-19,15.26-14.33,30.8-44.54,31-44.84a2,2,0,0,1,3.56,1.82c-.65,1.26-16,31.13-31.78,45.93-4.59,4.31-5.52,9.48-2.49,13.82,2.64,3.78,8.24,6.26,13.06,3.85a8.41,8.41,0,0,1,7.39-.38c5.2,2.34,7.33,9.72,7.55,10.56a2,2,0,0,1-1.4,2.45A1.93,1.93,0,0,1,3156.19,1634.49Z"/><path class="cls-13" d="M3194,1648.17c.39.16.49.92.31,2.2a11.22,11.22,0,0,1-.57,2.25c-.15.43-.3.89-.51,1.37s-.47,1-.71,1.48a20.76,20.76,0,0,1-5.27,6.43,19.88,19.88,0,0,1-9.59,4.2,23.05,23.05,0,0,1-5.34.21,27,27,0,0,1-4.8-.78,30.28,30.28,0,0,1-7.41-3c-3.93-2.22-5.78-4.43-5.32-5.12s3,.07,7,1.1a57.53,57.53,0,0,0,6.87,1.43,32.05,32.05,0,0,0,4,.32,22,22,0,0,0,4.12-.27,18.27,18.27,0,0,0,7.19-2.69,25.78,25.78,0,0,0,5-4.34C3191.57,1650.05,3193.14,1647.81,3194,1648.17Z"/><path class="Graphic-Style-6" d="M4328.87,882.19c-87-7.13-72.72,75.56-72.72,75.56H4413V819.46C4367.36,790.94,4308.91,844.41,4328.87,882.19Z"/><path class="Graphic-Style-6" d="M4328.87,882.19c-87-7.13-72.72,75.56-72.72,75.56H4413V819.46C4367.36,790.94,4308.91,844.41,4328.87,882.19Z"/><path class="Graphic-Style-6" d="M4328.87,882.19c-87-7.13-72.72,75.56-72.72,75.56H4413V819.46C4367.36,790.94,4308.91,844.41,4328.87,882.19Z"/><path class="Graphic-Style-6" d="M3248.87,747.46h-206V619.62c89.82-24.24,124.51,66.06,124.51,66.06s33.75-34.22,67.49-11.89S3248.87,747.46,3248.87,747.46Z"/><rect class="Graphic-Style-6" x="2637.19" y="3284.57" width="158.68" height="38.02" rx="19.01"/><rect class="cls-8" x="2934.72" y="3284.57" width="158.68" height="38.02" rx="19.01"/><rect class="Graphic-Style-6" x="3232.26" y="3284.57" width="158.68" height="38.02" rx="19.01"/><rect class="Graphic-Style-35" x="2635.44" y="3102.07" width="18.18" height="132.59"/><rect class="Graphic-Style-35" x="2671.44" y="3102.07" width="18.18" height="132.59"/><rect class="Graphic-Style-35" x="2707.44" y="3102.07" width="18.18" height="132.59"/><rect class="Graphic-Style-35" x="2743.44" y="3102.07" width="18.18" height="132.59"/><rect class="Graphic-Style-35" x="2779.44" y="3102.07" width="18.18" height="132.59"/><rect class="Graphic-Style-35" x="2932.97" y="2998.35" width="18.18" height="236.32"/><rect class="Graphic-Style-35" x="2968.97" y="2998.35" width="18.18" height="236.32"/><rect class="Graphic-Style-35" x="3004.97" y="2998.35" width="18.18" height="236.32"/><rect class="Graphic-Style-35" x="3040.97" y="2998.35" width="18.18" height="236.32"/><rect class="Graphic-Style-35" x="3076.97" y="2998.35" width="18.18" height="236.32"/><rect class="Graphic-Style-35" x="3230.51" y="2851.85" width="18.18" height="382.81"/><rect class="Graphic-Style-35" x="3266.51" y="2851.85" width="18.18" height="382.81"/><rect class="Graphic-Style-35" x="3302.51" y="2851.85" width="18.18" height="382.81"/><rect class="Graphic-Style-35" x="3338.51" y="2851.85" width="18.18" height="382.81"/><rect class="Graphic-Style-35" x="3374.51" y="2851.85" width="18.18" height="382.81"/><path class="cls-2" d="M2696.78,2907.77q0,19.45-11.66,30.34T2655,2949q-18.66,0-30.2-10.89t-11.54-30.34q0-19.18,11.54-30.07t30.2-10.89q18.4,0,30.08,10.89T2696.78,2907.77Zm-52.11,0q0,7.79,3,11.54a9.14,9.14,0,0,0,14.78,0q3-3.75,3-11.54,0-7.51-3-11.15a9.35,9.35,0,0,0-14.78,0Q2644.67,2900.27,2644.67,2907.77Zm100.6-41.22a50.53,50.53,0,0,1,15.68,4.8q6.87,3.49,7.39,9.46a20.11,20.11,0,0,1-2.07,8.56,57.93,57.93,0,0,1-5.45,9.07l-89.71,129.89a36.47,36.47,0,0,1-13.87-4.79,12.07,12.07,0,0,1-6.09-9.47,51.65,51.65,0,0,1,.65-8.17,24.83,24.83,0,0,1,4-9.2Zm60.15,120.82q0,19.44-11.67,30.33t-30.08,10.89q-18.66,0-30.2-10.89t-11.54-30.33q0-19.18,11.54-30.08t30.2-10.89q18.4,0,30.08,10.89T2805.42,2987.37Zm-52.12,0q0,7.77,3,11.53a9.14,9.14,0,0,0,14.78,0q3-3.75,3-11.53,0-7.51-3-11.15a9.34,9.34,0,0,0-14.78,0Q2753.31,2979.85,2753.3,2987.37Z"/></g></svg>